<svg xmlns="http://www.w3.org/2000/svg" width="162" height="136" viewBox="0 0 162 136">
  <g id="dot-vector1" transform="translate(-1688 -9920.198)">
    <circle id="Ellipse_49" data-name="Ellipse 49" cx="3" cy="3" r="3" transform="translate(1688 9920.198)" fill="#ffe539"/>
    <circle id="Ellipse_49-2" data-name="Ellipse 49" cx="3" cy="3" r="3" transform="translate(1714 9920.198)" fill="#ffe539"/>
    <circle id="Ellipse_49-3" data-name="Ellipse 49" cx="3" cy="3" r="3" transform="translate(1740 9920.198)" fill="#ffe539"/>
    <circle id="Ellipse_49-4" data-name="Ellipse 49" cx="3" cy="3" r="3" transform="translate(1766 9920.198)" fill="#ffe539"/>
    <circle id="Ellipse_49-5" data-name="Ellipse 49" cx="3" cy="3" r="3" transform="translate(1792 9920.198)" fill="#ffe539"/>
    <circle id="Ellipse_49-6" data-name="Ellipse 49" cx="3" cy="3" r="3" transform="translate(1818 9920.198)" fill="#ffe539"/>
    <circle id="Ellipse_49-7" data-name="Ellipse 49" cx="3" cy="3" r="3" transform="translate(1844 9920.198)" fill="#ffe539"/>
    <circle id="Ellipse_49-8" data-name="Ellipse 49" cx="3" cy="3" r="3" transform="translate(1688 9946.198)" fill="#ffe539"/>
    <circle id="Ellipse_49-9" data-name="Ellipse 49" cx="3" cy="3" r="3" transform="translate(1714 9946.198)" fill="#ffe539"/>
    <circle id="Ellipse_49-10" data-name="Ellipse 49" cx="3" cy="3" r="3" transform="translate(1740 9946.198)" fill="#ffe539"/>
    <circle id="Ellipse_49-11" data-name="Ellipse 49" cx="3" cy="3" r="3" transform="translate(1766 9946.198)" fill="#ffe539"/>
    <circle id="Ellipse_49-12" data-name="Ellipse 49" cx="3" cy="3" r="3" transform="translate(1792 9946.198)" fill="#ffe539"/>
    <circle id="Ellipse_49-13" data-name="Ellipse 49" cx="3" cy="3" r="3" transform="translate(1818 9946.198)" fill="#ffe539"/>
    <circle id="Ellipse_49-14" data-name="Ellipse 49" cx="3" cy="3" r="3" transform="translate(1844 9946.198)" fill="#ffe539"/>
    <circle id="Ellipse_49-15" data-name="Ellipse 49" cx="3" cy="3" r="3" transform="translate(1688 9972.198)" fill="#ffe539"/>
    <circle id="Ellipse_49-16" data-name="Ellipse 49" cx="3" cy="3" r="3" transform="translate(1714 9972.198)" fill="#ffe539"/>
    <circle id="Ellipse_49-17" data-name="Ellipse 49" cx="3" cy="3" r="3" transform="translate(1740 9972.198)" fill="#ffe539"/>
    <circle id="Ellipse_49-18" data-name="Ellipse 49" cx="3" cy="3" r="3" transform="translate(1766 9972.198)" fill="#ffe539"/>
    <circle id="Ellipse_49-19" data-name="Ellipse 49" cx="3" cy="3" r="3" transform="translate(1792 9972.198)" fill="#ffe539"/>
    <circle id="Ellipse_49-20" data-name="Ellipse 49" cx="3" cy="3" r="3" transform="translate(1818 9972.198)" fill="#ffe539"/>
    <circle id="Ellipse_49-21" data-name="Ellipse 49" cx="3" cy="3" r="3" transform="translate(1844 9972.198)" fill="#ffe539"/>
    <circle id="Ellipse_49-22" data-name="Ellipse 49" cx="3" cy="3" r="3" transform="translate(1688 9998.198)" fill="#ffe539"/>
    <circle id="Ellipse_49-23" data-name="Ellipse 49" cx="3" cy="3" r="3" transform="translate(1714 9998.198)" fill="#ffe539"/>
    <circle id="Ellipse_49-24" data-name="Ellipse 49" cx="3" cy="3" r="3" transform="translate(1740 9998.198)" fill="#ffe539"/>
    <circle id="Ellipse_49-25" data-name="Ellipse 49" cx="3" cy="3" r="3" transform="translate(1766 9998.198)" fill="#ffe539"/>
    <circle id="Ellipse_49-26" data-name="Ellipse 49" cx="3" cy="3" r="3" transform="translate(1792 9998.198)" fill="#ffe539"/>
    <circle id="Ellipse_49-27" data-name="Ellipse 49" cx="3" cy="3" r="3" transform="translate(1818 9998.198)" fill="#ffe539"/>
    <circle id="Ellipse_49-28" data-name="Ellipse 49" cx="3" cy="3" r="3" transform="translate(1844 9998.198)" fill="#ffe539"/>
    <circle id="Ellipse_49-29" data-name="Ellipse 49" cx="3" cy="3" r="3" transform="translate(1688 10024.198)" fill="#ffe539"/>
    <circle id="Ellipse_49-30" data-name="Ellipse 49" cx="3" cy="3" r="3" transform="translate(1714 10024.198)" fill="#ffe539"/>
    <circle id="Ellipse_49-31" data-name="Ellipse 49" cx="3" cy="3" r="3" transform="translate(1740 10024.198)" fill="#ffe539"/>
    <circle id="Ellipse_49-32" data-name="Ellipse 49" cx="3" cy="3" r="3" transform="translate(1766 10024.198)" fill="#ffe539"/>
    <circle id="Ellipse_49-33" data-name="Ellipse 49" cx="3" cy="3" r="3" transform="translate(1792 10024.198)" fill="#ffe539"/>
    <circle id="Ellipse_49-34" data-name="Ellipse 49" cx="3" cy="3" r="3" transform="translate(1818 10024.198)" fill="#ffe539"/>
    <circle id="Ellipse_49-35" data-name="Ellipse 49" cx="3" cy="3" r="3" transform="translate(1844 10024.198)" fill="#ffe539"/>
    <circle id="Ellipse_49-36" data-name="Ellipse 49" cx="3" cy="3" r="3" transform="translate(1688 10050.198)" fill="#ffe539"/>
    <circle id="Ellipse_49-37" data-name="Ellipse 49" cx="3" cy="3" r="3" transform="translate(1714 10050.198)" fill="#ffe539"/>
    <circle id="Ellipse_49-38" data-name="Ellipse 49" cx="3" cy="3" r="3" transform="translate(1740 10050.198)" fill="#ffe539"/>
    <circle id="Ellipse_49-39" data-name="Ellipse 49" cx="3" cy="3" r="3" transform="translate(1766 10050.198)" fill="#ffe539"/>
    <circle id="Ellipse_49-40" data-name="Ellipse 49" cx="3" cy="3" r="3" transform="translate(1792 10050.198)" fill="#ffe539"/>
    <circle id="Ellipse_49-41" data-name="Ellipse 49" cx="3" cy="3" r="3" transform="translate(1818 10050.198)" fill="#ffe539"/>
    <circle id="Ellipse_49-42" data-name="Ellipse 49" cx="3" cy="3" r="3" transform="translate(1844 10050.198)" fill="#ffe539"/>
  </g>
</svg>
