<svg xmlns="http://www.w3.org/2000/svg" width="153.155" height="132.839" viewBox="0 0 153.155 132.839">
  <g id="Group_44976" data-name="Group 44976" transform="translate(0 0)">
    <path id="Fill_28" data-name="Fill 28" d="M13.446,0,0,1.556,1.234,12.245,14.68,10.69Z" transform="translate(47.443 63.525) rotate(47)" fill="#347ee8"/>
    <path id="Fill_30" data-name="Fill 30" d="M12.31,3.881,3.08,0,0,7.336l9.229,3.882Z" transform="translate(144.76 58.575) rotate(47)" fill="#e5e7eb"/>
    <path id="Fill_30-2" data-name="Fill 30" d="M12.31,3.881,3.08,0,0,7.336l9.229,3.882Z" transform="matrix(0.875, -0.485, 0.485, 0.875, 0, 72.793)" fill="#ffc84a"/>
    <path id="Fill_30-3" data-name="Fill 30" d="M12.31,3.881,3.08,0,0,7.336l9.229,3.882Z" transform="matrix(-0.309, 0.951, -0.951, -0.309, 89.63, 3.467)" fill="#e5e7eb"/>
    <path id="Fill_36" data-name="Fill 36" d="M16.689,0,0,5.679,4.677,19.447l16.689-5.679Z" transform="translate(98.983 103.95) rotate(47)" fill="#ffc84a"/>
  </g>
</svg>
