<svg xmlns="http://www.w3.org/2000/svg" width="459.533" height="111.878" viewBox="0 0 459.533 111.878">
  <path id="Path_42684" data-name="Path 42684" d="M351.862,111.878A20.742,20.742,0,0,1,331.17,91.99L2.828,93.684-76.914,11.543a6.349,6.349,0,0,1-8.321-.843,6.369,6.369,0,0,1,.328-9,6.369,6.369,0,0,1,9,.328,6.347,6.347,0,0,1,.233,8.36l79.24,81.6L331.17,90.3a20.722,20.722,0,1,1,20.692,21.582ZM370.9,91.144a19.028,19.028,0,0,0-38.037-.848h3.908a15.135,15.135,0,1,1,0,1.694h-3.908a19.028,19.028,0,0,0,38.037-.846Zm-22.71-.848a3.774,3.774,0,1,1,0,1.694h-9.728a13.441,13.441,0,1,0,0-1.694Z" transform="translate(86.938)" fill="#1d2669"/>
</svg>
