<svg xmlns="http://www.w3.org/2000/svg" width="252.387" height="70.784" viewBox="0 0 252.387 70.784">
  <path id="Path_42686" data-name="Path 42686" d="M20.734,0A20.742,20.742,0,0,1,41.425,19.888H205.783l36.581,39.353a6.371,6.371,0,1,1-1.238,1.152L205.047,21.582H41.425A20.722,20.722,0,1,1,20.734,0ZM1.694,20.733a19.028,19.028,0,0,0,38.037.848H35.823a15.135,15.135,0,1,1,0-1.694h3.908a19.028,19.028,0,0,0-38.037.846Zm22.71.848a3.774,3.774,0,1,1,0-1.694h9.728a13.441,13.441,0,1,0,0,1.694Z" fill="#0d285e"/>
</svg>
