<svg xmlns="http://www.w3.org/2000/svg" width="209.224" height="70.784" viewBox="0 0 209.224 70.784">
  <path id="Path_27622" data-name="Path 27622" d="M231.653,0a20.742,20.742,0,0,0-20.692,19.888H89.767L53.186,59.241a6.371,6.371,0,1,0,1.238,1.152L90.5,21.582H210.962A20.722,20.722,0,1,0,231.653,0Zm19.039,20.733a19.028,19.028,0,0,1-38.037.848h3.908a15.135,15.135,0,1,0,0-1.694h-3.908a19.028,19.028,0,0,1,38.037.846Zm-22.71.848a3.774,3.774,0,1,0,0-1.694h-9.728a13.441,13.441,0,1,1,0,1.694Z" transform="translate(-43.163)" fill="#ffb406"/>
</svg>
