<svg xmlns="http://www.w3.org/2000/svg" width="47.532" height="46.342" viewBox="0 0 47.532 46.342">
  <g id="Polygon_10" data-name="Polygon 10" transform="matrix(0.809, 0.588, -0.588, 0.809, 18.171, 0)" fill="none">
    <path d="M16.421,2.939a2,2,0,0,1,3.45,0L34.523,27.9A2,2,0,0,1,32.8,30.915H3.493A2,2,0,0,1,1.768,27.9Z" stroke="none"/>
    <path d="M 18.14571952819824 2.951004028320312 C 17.97356033325195 2.951004028320312 17.54489898681641 2.999124526977539 17.28330993652344 3.444803237915039 L 2.630569458007812 28.40872383117676 C 2.365688323974609 28.85998344421387 2.538551330566406 29.26054382324219 2.625167846679688 29.41181373596191 C 2.711780548095703 29.56308364868164 2.969718933105469 29.91492462158203 3.49298095703125 29.91492462158203 L 32.79845809936523 29.91492462158203 C 33.32172012329102 29.91492462158203 33.57965850830078 29.56308364868164 33.6662712097168 29.41181373596191 C 33.75289154052734 29.26054382324219 33.92575073242188 28.85998344421387 33.66086959838867 28.40872383117676 L 19.00812911987305 3.444803237915039 C 18.74654006958008 2.999124526977539 18.31787872314453 2.951004028320312 18.14571952819824 2.951004028320312 M 18.14571952819824 1.951004028320312 C 18.81490898132324 1.951004028320312 19.48410034179688 2.280204772949219 19.87055015563965 2.938604354858398 L 34.52328872680664 27.90252304077148 C 35.30587005615234 29.23580360412598 34.34444808959961 30.91492462158203 32.79845809936523 30.91492462158203 L 3.49298095703125 30.91492462158203 C 1.946990966796875 30.91492462158203 0.9855690002441406 29.23580360412598 1.768150329589844 27.90252304077148 L 16.42088890075684 2.938604354858398 C 16.80733871459961 2.280204772949219 17.47653007507324 1.951004028320312 18.14571952819824 1.951004028320312 Z" stroke="none" fill="#1a7e8a"/>
  </g>
</svg>
