<svg xmlns="http://www.w3.org/2000/svg" width="35.362" height="34.478" viewBox="0 0 35.362 34.478">
  <g id="Polygon_8" data-name="Polygon 8" transform="matrix(0.809, 0.588, -0.588, 0.809, 13.519, 0)" fill="none">
    <path d="M11.775,2.939a2,2,0,0,1,3.45,0L25.232,19.988A2,2,0,0,1,23.507,23H3.493a2,2,0,0,1-1.725-3.012Z" stroke="none"/>
    <path d="M 13.50000858306885 2.951004028320312 C 13.32784843444824 2.951004028320312 12.89918899536133 2.999124526977539 12.63759899139404 3.444805145263672 L 2.630569458007812 20.49380493164062 C 2.365688323974609 20.94506454467773 2.538549423217773 21.34562492370605 2.625167846679688 21.49689483642578 C 2.71177864074707 21.64816474914551 2.969728469848633 22.00000381469727 3.492979049682617 22.00000381469727 L 23.50703811645508 22.00000381469727 C 24.03028869628906 22.00000381469727 24.28823852539062 21.64816474914551 24.37484931945801 21.49689483642578 C 24.46146774291992 21.34562492370605 24.63432884216309 20.94506454467773 24.36944961547852 20.49380493164062 L 14.36241817474365 3.444805145263672 C 14.10082817077637 2.999124526977539 13.67216873168945 2.951004028320312 13.50000858306885 2.951004028320312 M 13.50000858306885 1.951004028320312 C 14.16919898986816 1.951004028320312 14.83838844299316 2.280204772949219 15.22483825683594 2.938604354858398 L 25.23186874389648 19.98760414123535 C 26.01444816589355 21.32088470458984 25.05301856994629 23.00000381469727 23.50703811645508 23.00000381469727 L 3.492979049682617 23.00000381469727 C 1.946998596191406 23.00000381469727 0.9855690002441406 21.32088470458984 1.768148422241211 19.98760414123535 L 11.77517890930176 2.938604354858398 C 12.16162872314453 2.280204772949219 12.83081817626953 1.951004028320312 13.50000858306885 1.951004028320312 Z" stroke="none" fill="#de9d2d"/>
  </g>
</svg>
